<?xml version="1.0" standalone="no"?>
<!DOCTYPE svg PUBLIC "-//W3C//DTD SVG 20010904//EN"
 "http://www.w3.org/TR/2001/REC-SVG-20010904/DTD/svg10.dtd">
<svg version="1.0" xmlns="http://www.w3.org/2000/svg"
 width="200.000000pt" height="200.000000pt" viewBox="0 0 200.000000 200.000000"
 preserveAspectRatio="xMidYMid meet">

<g transform="translate(0.000000,200.000000) scale(0.100000,-0.100000)"
fill="#000000" stroke="none">
<path d="M850 815 c0 -88 1 -95 20 -95 17 0 20 7 20 44 0 51 20 76 45 56 9 -8
15 -30 15 -57 0 -37 3 -44 18 -41 13 2 18 15 20 50 4 60 -24 93 -69 84 -27 -5
-29 -3 -29 24 0 23 -4 30 -20 30 -19 0 -20 -7 -20 -95z"/>
<path d="M550 893 c0 -4 12 -44 27 -90 23 -70 31 -83 47 -81 13 2 25 19 38 57
10 30 20 56 22 58 2 2 13 -22 23 -54 14 -41 25 -59 39 -61 16 -2 24 11 48 83
15 48 25 89 22 92 -14 14 -33 -10 -50 -62 -9 -31 -20 -55 -22 -52 -2 2 -12 28
-23 58 -24 73 -48 73 -72 0 -11 -30 -21 -56 -23 -58 -3 -3 -12 23 -22 56 -13
47 -21 61 -35 61 -11 0 -19 -3 -19 -7z"/>
<path d="M1290 865 c0 -19 5 -35 10 -35 6 0 10 16 10 35 0 19 -4 35 -10 35 -5
0 -10 -16 -10 -35z"/>
<path d="M1190 875 c0 -7 -8 -19 -17 -25 -17 -10 -17 -10 0 -20 11 -8 17 -24
17 -50 0 -21 5 -42 10 -45 6 -3 10 -17 10 -31 0 -19 5 -25 18 -22 9 2 16 11
16 21 -1 9 2 17 7 17 18 0 8 28 -11 33 -15 4 -20 14 -20 37 0 23 5 33 20 37
11 3 20 9 20 13 0 4 -9 10 -20 13 -11 3 -20 12 -20 21 0 9 -7 16 -15 16 -8 0
-15 -7 -15 -15z"/>
<path d="M1043 853 c-26 -10 -13 -31 18 -29 18 0 34 -5 36 -11 3 -8 -5 -13
-20 -13 -40 0 -57 -10 -57 -36 0 -29 23 -42 78 -41 l42 0 0 53 c0 43 -4 56
-22 68 -22 16 -51 19 -75 9z m65 -85 c-5 -15 -58 -24 -58 -10 0 15 12 22 38
22 14 0 22 -5 20 -12z"/>
<path d="M1358 849 c-21 -12 -24 -42 -5 -56 6 -6 24 -13 40 -17 43 -10 33 -29
-13 -23 -30 4 -40 2 -40 -9 0 -18 47 -29 79 -18 18 7 27 18 29 36 3 24 -1 28
-38 38 -45 12 -45 34 1 28 17 -3 30 1 33 8 9 23 -53 33 -86 13z"/>
<path d="M105 710 c-4 -7 -3 -16 3 -22 14 -14 45 -2 40 15 -6 16 -34 21 -43 7z"/>
<path d="M540 615 c0 -78 3 -95 15 -95 11 0 15 11 15 39 0 36 19 71 39 71 18
0 31 -28 31 -67 0 -32 4 -43 15 -43 12 0 15 13 15 60 0 68 -18 86 -71 75 -27
-6 -29 -5 -29 24 0 21 -5 31 -15 31 -12 0 -15 -17 -15 -95z"/>
<path d="M1380 680 c0 -27 -2 -30 -25 -24 -41 10 -75 -19 -75 -65 0 -50 19
-65 86 -67 l54 -2 0 94 c0 87 -1 94 -20 94 -16 0 -20 -7 -20 -30z m-2 -84 c5
-44 -38 -64 -58 -26 -15 28 4 62 33 58 16 -2 23 -11 25 -32z"/>
<path d="M950 610 c0 -72 3 -90 14 -90 9 0 16 12 18 33 3 30 6 32 46 35 28 2
42 8 42 18 0 10 -13 14 -46 14 -41 0 -45 2 -42 23 3 19 10 22 51 25 33 2 47 7
47 18 0 11 -15 14 -65 14 l-65 0 0 -90z"/>
<path d="M1784 685 c-16 -13 -17 -16 -4 -24 9 -7 18 -7 24 -1 13 13 43 13 52
-1 3 -6 -3 -24 -15 -40 -21 -28 -21 -29 -2 -29 21 0 61 44 61 66 0 39 -77 59
-116 29z"/>
<path d="M430 671 c0 -11 -6 -22 -12 -25 -10 -5 -10 -7 0 -12 6 -3 12 -23 12
-44 0 -44 22 -73 53 -68 28 4 33 24 7 31 -15 4 -20 13 -20 41 0 25 4 36 15 36
8 0 15 5 15 10 0 6 -7 10 -15 10 -8 0 -15 9 -15 20 0 13 -7 20 -20 20 -13 0
-20 -7 -20 -19z"/>
<path d="M110 590 c0 -56 3 -70 15 -70 12 0 15 14 15 70 0 56 -3 70 -15 70
-12 0 -15 -14 -15 -70z"/>
<path d="M180 589 c0 -62 2 -69 20 -69 17 0 20 7 20 44 0 46 19 72 45 62 11
-4 15 -20 15 -56 0 -43 3 -50 20 -50 17 0 20 7 20 48 0 71 -18 90 -85 90 l-55
-1 0 -68z"/>
<path d="M729 642 c-25 -21 -30 -71 -10 -96 17 -21 66 -29 91 -16 28 15 16 31
-18 24 -19 -4 -33 0 -41 10 -12 14 -8 16 38 16 44 0 51 3 51 20 0 27 -35 60
-64 60 -13 0 -34 -8 -47 -18z m75 -27 c4 -12 -3 -15 -29 -15 -33 0 -43 8 -28
23 12 13 51 7 57 -8z"/>
<path d="M1100 589 c0 -62 2 -69 20 -69 17 0 20 7 20 45 0 34 5 47 20 55 33
18 24 36 -20 37 l-40 2 0 -70z"/>
<path d="M1210 589 c0 -62 2 -70 18 -67 14 3 18 16 20 71 3 62 1 67 -18 67
-18 0 -20 -6 -20 -71z"/>
<path d="M1469 639 c-44 -44 -5 -116 57 -106 36 6 43 -3 19 -23 -8 -7 -26 -9
-44 -5 -17 3 -32 2 -36 -4 -9 -16 43 -33 77 -26 43 10 58 40 58 116 l0 66 -56
1 c-42 0 -60 -4 -75 -19z m85 -31 c8 -14 7 -21 -6 -34 -22 -22 -58 -10 -58 21
0 37 43 46 64 13z"/>
<path d="M1650 640 c-52 -52 2 -134 76 -116 40 10 30 36 -12 33 -22 -1 -39 3
-41 11 -3 8 10 12 46 12 59 0 66 15 26 55 -29 30 -68 32 -95 5z m78 -27 c2 -9
-7 -13 -27 -13 -30 0 -39 9 -24 24 11 10 46 3 51 -11z"/>
<path d="M1822 543 c2 -10 10 -18 18 -18 8 0 16 8 18 18 2 12 -3 17 -18 17
-15 0 -20 -5 -18 -17z"/>
</g>
</svg>
